# xmcd
#
# Track frame offsets:
#	150
#	20199
#	41375
#	59166
#	78107
#	99213
#	116889
#	136531
#	156436
#	176530
#	199933
#	223215
#	244415
#	268594
#	292019
#	310649
#
# Disc length: 4431 seconds
#
# Revision: 1
# Processed by: cddbd v1.5.2PL0 Copyright (c) Steve Scherf et al.
# Submitted via: audiograbber 1.83.01
#
DISCID=ec114d10
DTITLE=Tim mcGraw - Greatest hits of Tim McGraw disc 3
DYEAR=1900
DGENRE=
TTITLE0=Red Ragtop
TTITLE1=Angry all the time
TTITLE2=Set this circus down
TTITLE3=You get used to somebody
TTITLE4=Let me love you
TTITLE5=Why we said goodbye
TTITLE6=She's my kind of rain
TTITLE7=Real good man
TTITLE8=Watch the wind blow by
TTITLE9=Live like you were dying
TTITLE10=Back when
TTITLE11=Sing me home
TTITLE12=Tiny Dancer
TTITLE13=Home
TTITLE14=Illegal
TTITLE15=Drugs or jesus
EXTD=
EXTT0=
EXTT1=
EXTT2=
EXTT3=
EXTT4=
EXTT5=
EXTT6=
EXTT7=
EXTT8=
EXTT9=
EXTT10=
EXTT11=
EXTT12=
EXTT13=
EXTT14=
EXTT15=
PLAYORDER=
